<svg width="64" height="64" viewBox="0 0 64 64" fill="none" xmlns="http://www.w3.org/2000/svg">
    <rect width="64" height="64" fill="white" />
    <path fill-rule="evenodd" clip-rule="evenodd" d="M0.0839419 32.6353C-0.0279806 32.2192 -0.0279806 31.7808 0.0839419 31.3647L4.05846 16.5877C4.16977 16.1738 4.38787 15.7965 4.6909 15.4934L15.4934 4.6909C15.7965 4.38787 16.1738 4.16977 16.5877 4.05846L31.3647 0.0839419C31.7808 -0.0279806 32.2192 -0.0279806 32.6353 0.0839419L47.4123 4.05846C47.8262 4.16977 48.2035 4.38787 48.5065 4.6909L59.3091 15.4934C59.6121 15.7965 59.8302 16.1738 59.9415 16.5877L63.916 31.3647C64.028 31.7808 64.028 32.2192 63.916 32.6353L59.9415 47.4123C59.8302 47.8262 59.6121 48.2035 59.3091 48.5065L48.5065 59.3091C48.2035 59.6121 47.8262 59.8302 47.4123 59.9415L32.6353 63.916C32.2192 64.028 31.7808 64.028 31.3647 63.916L16.5877 59.9415C16.1738 59.8302 15.7965 59.6121 15.4934 59.3091L4.6909 48.5065C4.38787 48.2035 4.16977 47.8262 4.05846 47.4123L0.0839419 32.6353ZM6.42038 46.7771L6.42006 46.7759L6.4213 46.778L6.42038 46.7771ZM14.06 41.833L6.31068 46.3692L2.62501 32.6661L14.06 41.833ZM14.0581 22.0705L2.62624 31.3293L6.31088 17.63L14.0581 22.0705ZM14.4661 21.3647L6.71904 16.9243L16.7335 6.90977L14.4661 21.3647ZM31.5928 11.5331L17.8899 6.24099L31.5928 2.55539V11.5331ZM32.4081 11.5328V2.55561L46.1101 6.24099L32.4081 11.5328ZM49.5339 21.3648L47.2665 6.90978L57.2811 16.9244L49.5339 21.3648ZM49.942 22.0706L57.6891 17.6302L61.3737 31.3293L49.942 22.0706ZM49.94 41.833L61.375 32.6661L57.6893 46.3692L49.94 41.833ZM57.5787 46.778L57.5799 46.7759L57.5796 46.7771L57.5787 46.778ZM49.5341 42.5401L57.2815 47.0752L47.2838 57.0729L49.5341 42.5401ZM32.4081 52.471L45.9615 57.799L32.4081 61.4444V52.471ZM32 61.5541L31.9998 61.5541H32.0002L32 61.5541ZM31.5928 52.4669V61.4446L17.8899 57.759L31.5928 52.4669ZM14.4665 42.5398L16.7342 57.0909L6.71848 47.0752L14.4665 42.5398ZM31.0552 12.1995L17.5474 6.98268L15.3116 21.2357L31.0552 12.1995ZM14.3691 22.8677L3.09556 31.9984L14.3691 41.0359V22.8677ZM15.3114 42.6666L17.5478 57.0172L31.0598 51.7988L15.3114 42.6666ZM32.9343 51.8019L46.4522 57.1158L48.6896 42.6656L32.9343 51.8019ZM49.6303 41.0363L60.9044 31.9984L49.6303 22.8672V41.0363ZM48.6885 21.2361L46.4526 6.98268L32.9445 12.1996L48.6885 21.2361ZM15.1844 41.6505V22.2488L31.9997 12.5974L48.815 22.2488V41.6505L31.9997 51.4014L15.1844 41.6505ZM23.5889 25.9163C23.4389 26.1796 23.4365 26.4663 23.5826 26.7058C23.5859 26.7112 23.5891 26.7165 23.5923 26.7219C23.5942 26.7252 23.5962 26.7285 23.5981 26.7319L30.7627 39.1413V25.4906H24.2803C24.0002 25.4906 23.7418 25.6478 23.5889 25.9163ZM40.3951 26.6311L33.2322 39.116V25.4906H39.7146C40.0291 25.4906 40.2814 25.6554 40.4179 25.8848C40.5478 26.1032 40.5626 26.3556 40.4122 26.6021C40.4084 26.6083 40.4047 26.6146 40.401 26.6209C40.399 26.6243 40.397 26.6277 40.3951 26.6311ZM21.4708 27.9968C20.1364 25.786 21.8164 23 24.2803 23H39.7146C42.1134 23 43.8906 25.6277 42.525 27.8915L33.0662 44.3784C32.8457 44.7626 32.4392 44.9994 31.9991 45C31.559 45.0006 31.1519 44.7649 30.9304 44.3813L21.4708 27.9968Z" fill="black"/>
</svg>
